<svg width="236" height="140" viewBox="0 0 236 140" fill="none" xmlns="http://www.w3.org/2000/svg">
<path d="M2.53906 8.5625H13.1445C15.319 8.5625 17.1875 8.88802 18.75 9.53906C20.3255 10.1901 21.5365 11.1536 22.3828 12.4297C23.2292 13.7057 23.6523 15.2747 23.6523 17.1367C23.6523 18.6602 23.3919 19.9688 22.8711 21.0625C22.3633 22.1432 21.6406 23.0482 20.7031 23.7773C19.7786 24.4935 18.6914 25.0664 17.4414 25.4961L15.5859 26.4727H6.36719L6.32812 21.9023H13.1836C14.2122 21.9023 15.0651 21.7201 15.7422 21.3555C16.4193 20.9909 16.9271 20.4831 17.2656 19.832C17.6172 19.181 17.793 18.4258 17.793 17.5664C17.793 16.6549 17.6237 15.8672 17.2852 15.2031C16.9466 14.5391 16.4323 14.0312 15.7422 13.6797C15.0521 13.3281 14.1862 13.1523 13.1445 13.1523H8.39844V37H2.53906V8.5625ZM18.4375 37L11.9531 24.3242L18.1445 24.2852L24.707 36.7266V37H18.4375ZM55.5234 22.1172V23.4648C55.5234 25.6263 55.2305 27.5664 54.6445 29.2852C54.0586 31.0039 53.2318 32.4688 52.1641 33.6797C51.0964 34.8776 49.8203 35.7956 48.3359 36.4336C46.8646 37.0716 45.2305 37.3906 43.4336 37.3906C41.6497 37.3906 40.0156 37.0716 38.5312 36.4336C37.0599 35.7956 35.7839 34.8776 34.7031 33.6797C33.6224 32.4688 32.7826 31.0039 32.1836 29.2852C31.5977 27.5664 31.3047 25.6263 31.3047 23.4648V22.1172C31.3047 19.9427 31.5977 18.0026 32.1836 16.2969C32.7695 14.5781 33.5964 13.1133 34.6641 11.9023C35.7448 10.6914 37.0208 9.76693 38.4922 9.12891C39.9766 8.49089 41.6107 8.17188 43.3945 8.17188C45.1914 8.17188 46.8255 8.49089 48.2969 9.12891C49.7812 9.76693 51.0573 10.6914 52.125 11.9023C53.2057 13.1133 54.0391 14.5781 54.625 16.2969C55.224 18.0026 55.5234 19.9427 55.5234 22.1172ZM49.6055 23.4648V22.0781C49.6055 20.5677 49.4688 19.2396 49.1953 18.0938C48.9219 16.9479 48.5182 15.9844 47.9844 15.2031C47.4505 14.4219 46.7995 13.8359 46.0312 13.4453C45.263 13.0417 44.3841 12.8398 43.3945 12.8398C42.4049 12.8398 41.526 13.0417 40.7578 13.4453C40.0026 13.8359 39.3581 14.4219 38.8242 15.2031C38.3034 15.9844 37.9062 16.9479 37.6328 18.0938C37.3594 19.2396 37.2227 20.5677 37.2227 22.0781V23.4648C37.2227 24.9622 37.3594 26.2904 37.6328 27.4492C37.9062 28.5951 38.3099 29.5651 38.8438 30.3594C39.3776 31.1406 40.0286 31.7331 40.7969 32.1367C41.5651 32.5404 42.444 32.7422 43.4336 32.7422C44.4232 32.7422 45.3021 32.5404 46.0703 32.1367C46.8385 31.7331 47.4831 31.1406 48.0039 30.3594C48.5247 29.5651 48.9219 28.5951 49.1953 27.4492C49.4688 26.2904 49.6055 24.9622 49.6055 23.4648ZM80.2266 27.5664H86.0664C85.9492 29.4805 85.4219 31.1797 84.4844 32.6641C83.5599 34.1484 82.2643 35.3073 80.5977 36.1406C78.944 36.974 76.9518 37.3906 74.6211 37.3906C72.7982 37.3906 71.1641 37.0781 69.7188 36.4531C68.2734 35.8151 67.0365 34.9036 66.0078 33.7188C64.9922 32.5339 64.2174 31.1016 63.6836 29.4219C63.1497 27.7422 62.8828 25.8607 62.8828 23.7773V21.8047C62.8828 19.7214 63.1562 17.8398 63.7031 16.1602C64.263 14.4674 65.0573 13.0286 66.0859 11.8438C67.1276 10.6589 68.3711 9.7474 69.8164 9.10938C71.2617 8.47135 72.8763 8.15234 74.6602 8.15234C77.0299 8.15234 79.0286 8.58203 80.6562 9.44141C82.2969 10.3008 83.5664 11.4857 84.4648 12.9961C85.3763 14.5065 85.9232 16.2253 86.1055 18.1523H80.2461C80.181 17.0065 79.9531 16.0365 79.5625 15.2422C79.1719 14.4349 78.5794 13.8294 77.7852 13.4258C77.0039 13.0091 75.9622 12.8008 74.6602 12.8008C73.6836 12.8008 72.8307 12.9831 72.1016 13.3477C71.3724 13.7122 70.7604 14.2656 70.2656 15.0078C69.7708 15.75 69.3997 16.6875 69.1523 17.8203C68.918 18.9401 68.8008 20.2552 68.8008 21.7656V23.7773C68.8008 25.2487 68.9115 26.5443 69.1328 27.6641C69.3542 28.7708 69.6927 29.7083 70.1484 30.4766C70.6172 31.2318 71.2161 31.8047 71.9453 32.1953C72.6875 32.5729 73.5794 32.7617 74.6211 32.7617C75.8451 32.7617 76.8542 32.5664 77.6484 32.1758C78.4427 31.7852 79.0482 31.2057 79.4648 30.4375C79.8945 29.6693 80.1484 28.7122 80.2266 27.5664ZM99.7734 8.5625V37H93.9141V8.5625H99.7734ZM116.805 8.5625L105.535 22.6055L99.0312 29.5977L97.9766 24.0508L102.371 18.0352L109.617 8.5625H116.805ZM110.145 37L101.766 23.8555L106.102 20.2227L117.078 37H110.145Z" fill="white"/>
<path d="M13.6133 77.8633H6.36719V73.293H13.6133C14.7331 73.293 15.6445 73.1107 16.3477 72.7461C17.0508 72.3685 17.5651 71.8477 17.8906 71.1836C18.2161 70.5195 18.3789 69.7708 18.3789 68.9375C18.3789 68.0911 18.2161 67.3034 17.8906 66.5742C17.5651 65.8451 17.0508 65.2591 16.3477 64.8164C15.6445 64.3737 14.7331 64.1523 13.6133 64.1523H8.39844V88H2.53906V59.5625H13.6133C15.8398 59.5625 17.7474 59.9661 19.3359 60.7734C20.9375 61.5677 22.1615 62.668 23.0078 64.0742C23.8542 65.4805 24.2773 67.0885 24.2773 68.8984C24.2773 70.7344 23.8542 72.3229 23.0078 73.6641C22.1615 75.0052 20.9375 76.0404 19.3359 76.7695C17.7474 77.4987 15.8398 77.8633 13.6133 77.8633ZM40.6406 64.4258L32.9062 88H26.6758L37.2422 59.5625H41.207L40.6406 64.4258ZM47.0664 88L39.3125 64.4258L38.6875 59.5625H42.6914L53.3164 88H47.0664ZM46.7148 77.4141V82.0039H31.6953V77.4141H46.7148ZM71.0273 77.8633H63.7812V73.293H71.0273C72.1471 73.293 73.0586 73.1107 73.7617 72.7461C74.4648 72.3685 74.9792 71.8477 75.3047 71.1836C75.6302 70.5195 75.793 69.7708 75.793 68.9375C75.793 68.0911 75.6302 67.3034 75.3047 66.5742C74.9792 65.8451 74.4648 65.2591 73.7617 64.8164C73.0586 64.3737 72.1471 64.1523 71.0273 64.1523H65.8125V88H59.9531V59.5625H71.0273C73.2539 59.5625 75.1615 59.9661 76.75 60.7734C78.3516 61.5677 79.5755 62.668 80.4219 64.0742C81.2682 65.4805 81.6914 67.0885 81.6914 68.8984C81.6914 70.7344 81.2682 72.3229 80.4219 73.6641C79.5755 75.0052 78.3516 76.0404 76.75 76.7695C75.1615 77.4987 73.2539 77.8633 71.0273 77.8633ZM108.816 83.4297V88H93.6797V83.4297H108.816ZM95.5938 59.5625V88H89.7344V59.5625H95.5938ZM106.844 71.1445V75.5977H93.6797V71.1445H106.844ZM108.797 59.5625V64.1523H93.6797V59.5625H108.797ZM116.234 59.5625H126.84C129.014 59.5625 130.883 59.888 132.445 60.5391C134.021 61.1901 135.232 62.1536 136.078 63.4297C136.924 64.7057 137.348 66.2747 137.348 68.1367C137.348 69.6602 137.087 70.9688 136.566 72.0625C136.059 73.1432 135.336 74.0482 134.398 74.7773C133.474 75.4935 132.387 76.0664 131.137 76.4961L129.281 77.4727H120.062L120.023 72.9023H126.879C127.908 72.9023 128.76 72.7201 129.438 72.3555C130.115 71.9909 130.622 71.4831 130.961 70.832C131.312 70.181 131.488 69.4258 131.488 68.5664C131.488 67.6549 131.319 66.8672 130.98 66.2031C130.642 65.5391 130.128 65.0312 129.438 64.6797C128.747 64.3281 127.882 64.1523 126.84 64.1523H122.094V88H116.234V59.5625ZM132.133 88L125.648 75.3242L131.84 75.2852L138.402 87.7266V88H132.133Z" fill="white"/>
<path d="M18.3438 131.559C18.3438 131.051 18.2656 130.595 18.1094 130.191C17.9661 129.775 17.6927 129.397 17.2891 129.059C16.8854 128.707 16.319 128.362 15.5898 128.023C14.8607 127.685 13.9167 127.333 12.7578 126.969C11.4688 126.552 10.2448 126.083 9.08594 125.562C7.9401 125.042 6.92448 124.436 6.03906 123.746C5.16667 123.043 4.47656 122.229 3.96875 121.305C3.47396 120.38 3.22656 119.306 3.22656 118.082C3.22656 116.897 3.48698 115.823 4.00781 114.859C4.52865 113.883 5.25781 113.049 6.19531 112.359C7.13281 111.656 8.23958 111.116 9.51562 110.738C10.8047 110.361 12.2174 110.172 13.7539 110.172C15.8503 110.172 17.6797 110.549 19.2422 111.305C20.8047 112.06 22.0156 113.095 22.875 114.41C23.7474 115.725 24.1836 117.229 24.1836 118.922H18.3633C18.3633 118.089 18.1875 117.359 17.8359 116.734C17.4974 116.096 16.9766 115.595 16.2734 115.23C15.5833 114.866 14.7109 114.684 13.6562 114.684C12.6406 114.684 11.7943 114.84 11.1172 115.152C10.4401 115.452 9.93229 115.862 9.59375 116.383C9.25521 116.891 9.08594 117.464 9.08594 118.102C9.08594 118.583 9.20312 119.02 9.4375 119.41C9.6849 119.801 10.0495 120.165 10.5312 120.504C11.013 120.842 11.6055 121.161 12.3086 121.461C13.0117 121.76 13.8255 122.053 14.75 122.34C16.2995 122.809 17.6602 123.336 18.832 123.922C20.0169 124.508 21.0065 125.165 21.8008 125.895C22.5951 126.624 23.194 127.451 23.5977 128.375C24.0013 129.299 24.2031 130.348 24.2031 131.52C24.2031 132.757 23.9622 133.863 23.4805 134.84C22.9987 135.816 22.3021 136.643 21.3906 137.32C20.4792 137.997 19.3919 138.512 18.1289 138.863C16.8659 139.215 15.4531 139.391 13.8906 139.391C12.4844 139.391 11.0977 139.208 9.73047 138.844C8.36328 138.466 7.11979 137.9 6 137.145C4.89323 136.389 4.00781 135.426 3.34375 134.254C2.67969 133.082 2.34766 131.695 2.34766 130.094H8.22656C8.22656 130.979 8.36328 131.728 8.63672 132.34C8.91016 132.952 9.29427 133.447 9.78906 133.824C10.2969 134.202 10.8958 134.475 11.5859 134.645C12.2891 134.814 13.0573 134.898 13.8906 134.898C14.9062 134.898 15.7396 134.755 16.3906 134.469C17.0547 134.182 17.543 133.785 17.8555 133.277C18.181 132.77 18.3438 132.197 18.3438 131.559ZM48.6719 129.566H54.5117C54.3945 131.48 53.8672 133.18 52.9297 134.664C52.0052 136.148 50.7096 137.307 49.043 138.141C47.3893 138.974 45.3971 139.391 43.0664 139.391C41.2435 139.391 39.6094 139.078 38.1641 138.453C36.7188 137.815 35.4818 136.904 34.4531 135.719C33.4375 134.534 32.6628 133.102 32.1289 131.422C31.5951 129.742 31.3281 127.861 31.3281 125.777V123.805C31.3281 121.721 31.6016 119.84 32.1484 118.16C32.7083 116.467 33.5026 115.029 34.5312 113.844C35.5729 112.659 36.8164 111.747 38.2617 111.109C39.707 110.471 41.3216 110.152 43.1055 110.152C45.4753 110.152 47.474 110.582 49.1016 111.441C50.7422 112.301 52.0117 113.486 52.9102 114.996C53.8216 116.507 54.3685 118.225 54.5508 120.152H48.6914C48.6263 119.007 48.3984 118.036 48.0078 117.242C47.6172 116.435 47.0247 115.829 46.2305 115.426C45.4492 115.009 44.4076 114.801 43.1055 114.801C42.1289 114.801 41.276 114.983 40.5469 115.348C39.8177 115.712 39.2057 116.266 38.7109 117.008C38.2161 117.75 37.8451 118.688 37.5977 119.82C37.3633 120.94 37.2461 122.255 37.2461 123.766V125.777C37.2461 127.249 37.3568 128.544 37.5781 129.664C37.7995 130.771 38.138 131.708 38.5938 132.477C39.0625 133.232 39.6615 133.805 40.3906 134.195C41.1328 134.573 42.0247 134.762 43.0664 134.762C44.2904 134.762 45.2995 134.566 46.0938 134.176C46.888 133.785 47.4935 133.206 47.9102 132.438C48.3398 131.669 48.5938 130.712 48.6719 129.566ZM68.5898 110.562V139H62.75V110.562H68.5898ZM92.8828 131.559C92.8828 131.051 92.8047 130.595 92.6484 130.191C92.5052 129.775 92.2318 129.397 91.8281 129.059C91.4245 128.707 90.8581 128.362 90.1289 128.023C89.3997 127.685 88.4557 127.333 87.2969 126.969C86.0078 126.552 84.7839 126.083 83.625 125.562C82.4792 125.042 81.4635 124.436 80.5781 123.746C79.7057 123.043 79.0156 122.229 78.5078 121.305C78.013 120.38 77.7656 119.306 77.7656 118.082C77.7656 116.897 78.026 115.823 78.5469 114.859C79.0677 113.883 79.7969 113.049 80.7344 112.359C81.6719 111.656 82.7786 111.116 84.0547 110.738C85.3438 110.361 86.7565 110.172 88.293 110.172C90.3893 110.172 92.2188 110.549 93.7812 111.305C95.3438 112.06 96.5547 113.095 97.4141 114.41C98.2865 115.725 98.7227 117.229 98.7227 118.922H92.9023C92.9023 118.089 92.7266 117.359 92.375 116.734C92.0365 116.096 91.5156 115.595 90.8125 115.23C90.1224 114.866 89.25 114.684 88.1953 114.684C87.1797 114.684 86.3333 114.84 85.6562 115.152C84.9792 115.452 84.4714 115.862 84.1328 116.383C83.7943 116.891 83.625 117.464 83.625 118.102C83.625 118.583 83.7422 119.02 83.9766 119.41C84.224 119.801 84.5885 120.165 85.0703 120.504C85.5521 120.842 86.1445 121.161 86.8477 121.461C87.5508 121.76 88.3646 122.053 89.2891 122.34C90.8385 122.809 92.1992 123.336 93.3711 123.922C94.556 124.508 95.5456 125.165 96.3398 125.895C97.1341 126.624 97.7331 127.451 98.1367 128.375C98.5404 129.299 98.7422 130.348 98.7422 131.52C98.7422 132.757 98.5013 133.863 98.0195 134.84C97.5378 135.816 96.8411 136.643 95.9297 137.32C95.0182 137.997 93.931 138.512 92.668 138.863C91.4049 139.215 89.9922 139.391 88.4297 139.391C87.0234 139.391 85.6367 139.208 84.2695 138.844C82.9023 138.466 81.6589 137.9 80.5391 137.145C79.4323 136.389 78.5469 135.426 77.8828 134.254C77.2188 133.082 76.8867 131.695 76.8867 130.094H82.7656C82.7656 130.979 82.9023 131.728 83.1758 132.34C83.4492 132.952 83.8333 133.447 84.3281 133.824C84.8359 134.202 85.4349 134.475 86.125 134.645C86.8281 134.814 87.5964 134.898 88.4297 134.898C89.4453 134.898 90.2786 134.755 90.9297 134.469C91.5938 134.182 92.082 133.785 92.3945 133.277C92.7201 132.77 92.8828 132.197 92.8828 131.559ZM121.531 131.559C121.531 131.051 121.453 130.595 121.297 130.191C121.154 129.775 120.88 129.397 120.477 129.059C120.073 128.707 119.507 128.362 118.777 128.023C118.048 127.685 117.104 127.333 115.945 126.969C114.656 126.552 113.432 126.083 112.273 125.562C111.128 125.042 110.112 124.436 109.227 123.746C108.354 123.043 107.664 122.229 107.156 121.305C106.661 120.38 106.414 119.306 106.414 118.082C106.414 116.897 106.674 115.823 107.195 114.859C107.716 113.883 108.445 113.049 109.383 112.359C110.32 111.656 111.427 111.116 112.703 110.738C113.992 110.361 115.405 110.172 116.941 110.172C119.038 110.172 120.867 110.549 122.43 111.305C123.992 112.06 125.203 113.095 126.062 114.41C126.935 115.725 127.371 117.229 127.371 118.922H121.551C121.551 118.089 121.375 117.359 121.023 116.734C120.685 116.096 120.164 115.595 119.461 115.23C118.771 114.866 117.898 114.684 116.844 114.684C115.828 114.684 114.982 114.84 114.305 115.152C113.628 115.452 113.12 115.862 112.781 116.383C112.443 116.891 112.273 117.464 112.273 118.102C112.273 118.583 112.391 119.02 112.625 119.41C112.872 119.801 113.237 120.165 113.719 120.504C114.201 120.842 114.793 121.161 115.496 121.461C116.199 121.76 117.013 122.053 117.938 122.34C119.487 122.809 120.848 123.336 122.02 123.922C123.204 124.508 124.194 125.165 124.988 125.895C125.783 126.624 126.382 127.451 126.785 128.375C127.189 129.299 127.391 130.348 127.391 131.52C127.391 132.757 127.15 133.863 126.668 134.84C126.186 135.816 125.49 136.643 124.578 137.32C123.667 137.997 122.579 138.512 121.316 138.863C120.053 139.215 118.641 139.391 117.078 139.391C115.672 139.391 114.285 139.208 112.918 138.844C111.551 138.466 110.307 137.9 109.188 137.145C108.081 136.389 107.195 135.426 106.531 134.254C105.867 133.082 105.535 131.695 105.535 130.094H111.414C111.414 130.979 111.551 131.728 111.824 132.34C112.098 132.952 112.482 133.447 112.977 133.824C113.484 134.202 114.083 134.475 114.773 134.645C115.477 134.814 116.245 134.898 117.078 134.898C118.094 134.898 118.927 134.755 119.578 134.469C120.242 134.182 120.73 133.785 121.043 133.277C121.368 132.77 121.531 132.197 121.531 131.559ZM158.734 124.117V125.465C158.734 127.626 158.441 129.566 157.855 131.285C157.27 133.004 156.443 134.469 155.375 135.68C154.307 136.878 153.031 137.796 151.547 138.434C150.076 139.072 148.441 139.391 146.645 139.391C144.861 139.391 143.227 139.072 141.742 138.434C140.271 137.796 138.995 136.878 137.914 135.68C136.833 134.469 135.993 133.004 135.395 131.285C134.809 129.566 134.516 127.626 134.516 125.465V124.117C134.516 121.943 134.809 120.003 135.395 118.297C135.98 116.578 136.807 115.113 137.875 113.902C138.956 112.691 140.232 111.767 141.703 111.129C143.188 110.491 144.822 110.172 146.605 110.172C148.402 110.172 150.036 110.491 151.508 111.129C152.992 111.767 154.268 112.691 155.336 113.902C156.417 115.113 157.25 116.578 157.836 118.297C158.435 120.003 158.734 121.943 158.734 124.117ZM152.816 125.465V124.078C152.816 122.568 152.68 121.24 152.406 120.094C152.133 118.948 151.729 117.984 151.195 117.203C150.661 116.422 150.01 115.836 149.242 115.445C148.474 115.042 147.595 114.84 146.605 114.84C145.616 114.84 144.737 115.042 143.969 115.445C143.214 115.836 142.569 116.422 142.035 117.203C141.514 117.984 141.117 118.948 140.844 120.094C140.57 121.24 140.434 122.568 140.434 124.078V125.465C140.434 126.962 140.57 128.29 140.844 129.449C141.117 130.595 141.521 131.565 142.055 132.359C142.589 133.141 143.24 133.733 144.008 134.137C144.776 134.54 145.655 134.742 146.645 134.742C147.634 134.742 148.513 134.54 149.281 134.137C150.049 133.733 150.694 133.141 151.215 132.359C151.736 131.565 152.133 130.595 152.406 129.449C152.68 128.29 152.816 126.962 152.816 125.465ZM166.953 110.562H177.559C179.733 110.562 181.602 110.888 183.164 111.539C184.74 112.19 185.951 113.154 186.797 114.43C187.643 115.706 188.066 117.275 188.066 119.137C188.066 120.66 187.806 121.969 187.285 123.062C186.777 124.143 186.055 125.048 185.117 125.777C184.193 126.493 183.105 127.066 181.855 127.496L180 128.473H170.781L170.742 123.902H177.598C178.626 123.902 179.479 123.72 180.156 123.355C180.833 122.991 181.341 122.483 181.68 121.832C182.031 121.181 182.207 120.426 182.207 119.566C182.207 118.655 182.038 117.867 181.699 117.203C181.361 116.539 180.846 116.031 180.156 115.68C179.466 115.328 178.6 115.152 177.559 115.152H172.812V139H166.953V110.562ZM182.852 139L176.367 126.324L182.559 126.285L189.121 138.727V139H182.852ZM211.383 131.559C211.383 131.051 211.305 130.595 211.148 130.191C211.005 129.775 210.732 129.397 210.328 129.059C209.924 128.707 209.358 128.362 208.629 128.023C207.9 127.685 206.956 127.333 205.797 126.969C204.508 126.552 203.284 126.083 202.125 125.562C200.979 125.042 199.964 124.436 199.078 123.746C198.206 123.043 197.516 122.229 197.008 121.305C196.513 120.38 196.266 119.306 196.266 118.082C196.266 116.897 196.526 115.823 197.047 114.859C197.568 113.883 198.297 113.049 199.234 112.359C200.172 111.656 201.279 111.116 202.555 110.738C203.844 110.361 205.257 110.172 206.793 110.172C208.889 110.172 210.719 110.549 212.281 111.305C213.844 112.06 215.055 113.095 215.914 114.41C216.786 115.725 217.223 117.229 217.223 118.922H211.402C211.402 118.089 211.227 117.359 210.875 116.734C210.536 116.096 210.016 115.595 209.312 115.23C208.622 114.866 207.75 114.684 206.695 114.684C205.68 114.684 204.833 114.84 204.156 115.152C203.479 115.452 202.971 115.862 202.633 116.383C202.294 116.891 202.125 117.464 202.125 118.102C202.125 118.583 202.242 119.02 202.477 119.41C202.724 119.801 203.089 120.165 203.57 120.504C204.052 120.842 204.645 121.161 205.348 121.461C206.051 121.76 206.865 122.053 207.789 122.34C209.339 122.809 210.699 123.336 211.871 123.922C213.056 124.508 214.046 125.165 214.84 125.895C215.634 126.624 216.233 127.451 216.637 128.375C217.04 129.299 217.242 130.348 217.242 131.52C217.242 132.757 217.001 133.863 216.52 134.84C216.038 135.816 215.341 136.643 214.43 137.32C213.518 137.997 212.431 138.512 211.168 138.863C209.905 139.215 208.492 139.391 206.93 139.391C205.523 139.391 204.137 139.208 202.77 138.844C201.402 138.466 200.159 137.9 199.039 137.145C197.932 136.389 197.047 135.426 196.383 134.254C195.719 133.082 195.387 131.695 195.387 130.094H201.266C201.266 130.979 201.402 131.728 201.676 132.34C201.949 132.952 202.333 133.447 202.828 133.824C203.336 134.202 203.935 134.475 204.625 134.645C205.328 134.814 206.096 134.898 206.93 134.898C207.945 134.898 208.779 134.755 209.43 134.469C210.094 134.182 210.582 133.785 210.895 133.277C211.22 132.77 211.383 132.197 211.383 131.559Z" fill="white"/>
</svg>
